<svg width="24" height="24" viewBox="0 0 24 24" fill="none" xmlns="http://www.w3.org/2000/svg">
<path fill-rule="evenodd" clip-rule="evenodd" d="M6.5792 23C6.22911 23 5.94531 22.7214 5.94531 22.3778L5.94531 7.73792C5.94531 7.39428 6.22911 7.11571 6.5792 7.11571C6.92928 7.11571 7.21308 7.39428 7.21308 7.73792L7.21308 22.3778C7.21308 22.7214 6.92928 23 6.5792 23Z" fill="#707070"/>
<path d="M6.58471 7.08263C7.45992 7.08263 8.16942 7.77943 8.16942 8.63897C8.16942 9.49851 7.45992 10.1953 6.58471 10.1953C5.7095 10.1953 5 9.49851 5 8.63897C5 7.77943 5.7095 7.08263 6.58471 7.08263Z" fill="#707070"/>
<path fill-rule="evenodd" clip-rule="evenodd" d="M11.1779 7.07227C11.1779 7.58772 11.6036 8.00558 12.1288 8.00558C12.6539 8.00558 13.0796 7.58772 13.0796 7.07227C13.0796 6.55682 12.6539 6.13896 12.1288 6.13896C11.6036 6.13896 11.1779 6.55682 11.1779 7.07227ZM12.1288 9.25C10.9035 9.25 9.91016 8.275 9.91016 7.07227C9.91016 5.86954 10.9035 4.89454 12.1288 4.89454C13.354 4.89454 14.3473 5.86954 14.3473 7.07227C14.3473 8.275 13.354 9.25 12.1288 9.25Z" fill="#707070"/>
<path fill-rule="evenodd" clip-rule="evenodd" d="M6.5792 6.67188C6.22911 6.67188 5.94531 6.3933 5.94531 6.04967L5.94531 1.64236C5.94531 1.29872 6.22911 1.02015 6.5792 1.02015C6.92928 1.02015 7.21308 1.29872 7.21308 1.64236L7.21308 6.04967C7.21308 6.3933 6.92928 6.67188 6.5792 6.67188Z" fill="#707070"/>
<path fill-rule="evenodd" clip-rule="evenodd" d="M12.1339 23C11.7838 23 11.5 22.7214 11.5 22.3778L11.5 10.1934C11.5 9.84979 11.7838 9.57122 12.1339 9.57122C12.484 9.57122 12.7678 9.84979 12.7678 10.1934L12.7678 22.3778C12.7678 22.7214 12.484 23 12.1339 23Z" fill="#707070"/>
<path fill-rule="evenodd" clip-rule="evenodd" d="M12.1339 6.15625C11.7838 6.15625 11.5 5.87768 11.5 5.53404L11.5 1.64524C11.5 1.3016 11.7838 1.02303 12.1339 1.02303C12.484 1.02303 12.7678 1.3016 12.7678 1.64524L12.7678 5.53404C12.7678 5.87768 12.484 6.15625 12.1339 6.15625Z" fill="#707070"/>
<path fill-rule="evenodd" clip-rule="evenodd" d="M17.4112 14.6875C17.0611 14.6875 16.7773 14.4089 16.7773 14.0653L16.7773 1.61994C16.7773 1.2763 17.0611 0.997732 17.4112 0.997732C17.7613 0.997732 18.0451 1.2763 18.0451 1.61994L18.0451 14.0653C18.0451 14.4089 17.7613 14.6875 17.4112 14.6875Z" fill="#707070"/>
<path d="M17.4167 15.1139C18.292 15.1139 19.0015 15.8107 19.0015 16.6702C19.0015 17.5298 18.292 18.2266 17.4167 18.2266C16.5415 18.2266 15.832 17.5298 15.832 16.6702C15.832 15.8107 16.5415 15.1139 17.4167 15.1139Z" fill="#707070"/>
<path fill-rule="evenodd" clip-rule="evenodd" d="M17.4112 23C17.0611 23 16.7773 22.7214 16.7773 22.3778L16.7773 18.2297C16.7773 17.8861 17.0611 17.6075 17.4112 17.6075C17.7613 17.6075 18.0451 17.8861 18.0451 18.2297L18.0451 22.3778C18.0451 22.7214 17.7613 23 17.4112 23Z" fill="#707070"/>
</svg>
