<svg width="24" height="24" viewBox="0 0 24 24" fill="none" xmlns="http://www.w3.org/2000/svg">
<g clip-path="url(#clip0_1322_503825)">
<path fill-rule="evenodd" clip-rule="evenodd" d="M1.91528 0.63305C1.91528 0.283426 2.20655 0 2.56585 0H10.2311C10.5904 0 10.8816 0.283426 10.8816 0.63305C10.8816 0.982673 10.5904 1.2661 10.2311 1.2661H2.56585C2.20655 1.2661 1.91528 0.982673 1.91528 0.63305Z" fill="#707070"/>
<path fill-rule="evenodd" clip-rule="evenodd" d="M2.50157 0.000118549C2.52401 0.000173513 2.54579 0.000226905 2.56687 0.000226905C2.92616 0.000226905 3.21743 0.283653 3.21743 0.633277C3.21743 0.9829 2.92616 1.26633 2.56687 1.26633C2.03115 1.26633 1.7791 1.28777 1.61844 1.39545C1.5233 1.45922 1.30113 1.6732 1.30113 2.55991C1.30113 2.90953 1.00986 3.19296 0.650563 3.19296C0.291267 3.19296 0 2.90953 0 2.55991C0 1.51999 0.256898 0.770652 0.880372 0.352763C1.41049 -0.00255507 2.07434 -0.000928344 2.50157 0.000118549Z" fill="#707070"/>
<path fill-rule="evenodd" clip-rule="evenodd" d="M0.650563 1.92969C1.00986 1.92969 1.30113 2.21311 1.30113 2.56274V20.3792C1.30113 20.7288 1.00986 21.0123 0.650563 21.0123C0.291267 21.0123 0 20.7288 0 20.3792V2.56274C0 2.21311 0.291267 1.92969 0.650563 1.92969Z" fill="#707070"/>
<path fill-rule="evenodd" clip-rule="evenodd" d="M0.650769 19.75C1.01007 19.75 1.30133 20.0334 1.30133 20.383C1.30133 20.9188 1.3217 21.1906 1.43695 21.3644C1.50096 21.4609 1.70239 21.6766 2.56707 21.6766C2.92637 21.6766 3.21764 21.9601 3.21764 22.3097C3.21764 22.6593 2.92637 22.9427 2.56707 22.9427C1.51545 22.9427 0.758733 22.6768 0.343662 22.0508C-0.0023424 21.529 -0.000867329 20.878 0.000107514 20.4477C0.00015773 20.4256 0.000206589 20.404 0.000206589 20.383C0.000206589 20.0334 0.291474 19.75 0.650769 19.75Z" fill="#707070"/>
<path fill-rule="evenodd" clip-rule="evenodd" d="M1.91528 22.3041C1.91573 21.9545 2.20737 21.6714 2.56666 21.6719L9.32641 21.6801C9.68571 21.6806 9.97661 21.9643 9.97616 22.314C9.97571 22.6636 9.68408 22.9467 9.32478 22.9462L2.56503 22.938C2.20574 22.9375 1.91483 22.6538 1.91528 22.3041Z" fill="#707070"/>
<path fill-rule="evenodd" clip-rule="evenodd" d="M9.86723 0.110663C10.1637 -0.0867748 10.5686 -0.012922 10.7715 0.275618L16.3708 8.2382C16.5737 8.52674 16.4978 8.9207 16.2012 9.11814C15.9047 9.31557 15.4999 9.24172 15.297 8.95318L9.69771 0.990602C9.49481 0.702063 9.5707 0.3081 9.86723 0.110663Z" fill="#707070"/>
<path fill-rule="evenodd" clip-rule="evenodd" d="M15.8228 7.96176C16.182 7.95677 16.4774 8.23612 16.4826 8.5857L16.464 11.358C16.4691 11.7076 16.182 11.995 15.8228 12C15.4635 12.005 15.1681 11.7256 15.163 11.3761L15.1816 8.60379C15.1764 8.2542 15.4635 7.96676 15.8228 7.96176Z" fill="#707070"/>
<path fill-rule="evenodd" clip-rule="evenodd" d="M3.25342 10.7034C3.25342 10.3537 3.54468 10.0703 3.90398 10.0703H12.036C12.3953 10.0703 12.6866 10.3537 12.6866 10.7034C12.6866 11.053 12.3953 11.3364 12.036 11.3364H3.90398C3.54468 11.3364 3.25342 11.053 3.25342 10.7034Z" fill="#707070"/>
<path fill-rule="evenodd" clip-rule="evenodd" d="M3.25342 14.9221C3.25342 14.5725 3.54468 14.2891 3.90398 14.2891H9.32534C9.68463 14.2891 9.9759 14.5725 9.9759 14.9221C9.9759 15.2717 9.68463 15.5552 9.32534 15.5552H3.90398C3.54468 15.5552 3.25342 15.2717 3.25342 14.9221Z" fill="#707070"/>
<path fill-rule="evenodd" clip-rule="evenodd" d="M3.25342 19.1409C3.25342 18.7912 3.54468 18.5078 3.90398 18.5078H7.15679C7.51609 18.5078 7.80736 18.7912 7.80736 19.1409C7.80736 19.4905 7.51609 19.7739 7.15679 19.7739H3.90398C3.54468 19.7739 3.25342 19.4905 3.25342 19.1409Z" fill="#707070"/>
<path fill-rule="evenodd" clip-rule="evenodd" d="M9.86638 0C10.2257 0 10.5169 0.283426 10.5169 0.63305V7.49109C10.5169 7.72417 10.7111 7.91312 10.9507 7.91312H15.2877C15.647 7.91312 15.9383 8.19655 15.9383 8.54617C15.9383 8.89579 15.647 9.17922 15.2877 9.17922H10.9507C9.99253 9.17922 9.21582 8.42342 9.21582 7.49109V0.63305C9.21582 0.283426 9.50709 0 9.86638 0Z" fill="#707070"/>
<path d="M15.6276 12.7032C15.07 12.7032 14.6305 13.1883 14.6305 13.7705V15.5841C14.6305 16.1663 15.07 16.6513 15.6276 16.6513H18.9919C19.5496 16.6513 19.9891 16.1663 19.9891 15.5841V13.7705C19.9891 13.1883 19.5496 12.7032 18.9919 12.7032H15.6276ZM15.5033 13.7705C15.5033 13.6849 15.5659 13.6287 15.6276 13.6287H18.9919C19.0536 13.6287 19.1162 13.6849 19.1162 13.7705V15.5841C19.1162 15.6696 19.0536 15.7259 18.9919 15.7259H15.6276C15.5659 15.7259 15.5033 15.6696 15.5033 15.5841V13.7705Z" fill="#707070" stroke="#707070" stroke-width="0.2" stroke-linejoin="round"/>
<path d="M16.1823 20.5626C15.6246 20.5626 15.1852 21.0476 15.1852 21.6299V22.8389C15.1852 23.4211 15.6246 23.9062 16.1823 23.9062H18.4252C18.9828 23.9062 19.4223 23.4211 19.4223 22.8389V21.6299C19.4223 21.0476 18.9828 20.5626 18.4252 20.5626H16.1823ZM16.058 21.6299C16.058 21.5443 16.1206 21.488 16.1823 21.488H18.4252C18.4869 21.488 18.5495 21.5443 18.5495 21.6299V22.8389C18.5495 22.9245 18.4869 22.9807 18.4252 22.9807H16.1823C16.1206 22.9807 16.058 22.9245 16.058 22.8389V21.6299Z" fill="#707070" stroke="#707070" stroke-width="0.2" stroke-linejoin="round"/>
<path d="M20.6662 20.9298C20.2943 20.9298 20.0055 21.2524 20.0055 21.6343V22.8434C20.0055 23.2253 20.2943 23.5479 20.6662 23.5479H22.9091C23.2809 23.5479 23.5698 23.2253 23.5698 22.8434V21.6343C23.5698 21.2524 23.2809 20.9298 22.9091 20.9298H20.6662Z" fill="#707070" stroke="#707070" stroke-width="0.2" stroke-linejoin="round"/>
<path d="M20.6589 20.5626C20.1012 20.5626 19.6617 21.0476 19.6617 21.6299V22.8389C19.6617 23.4211 20.1012 23.9062 20.6589 23.9062H22.9017C23.4594 23.9062 23.8989 23.4211 23.8989 22.8389V21.6299C23.8989 21.0476 23.4594 20.5626 22.9017 20.5626H20.6589ZM20.5346 21.6299C20.5346 21.5443 20.5972 21.488 20.6589 21.488H22.9017C22.9634 21.488 23.026 21.5443 23.026 21.6299V22.8389C23.026 22.9245 22.9634 22.9807 22.9017 22.9807H20.6589C20.5972 22.9807 20.5346 22.9245 20.5346 22.8389V21.6299Z" fill="#707070" stroke="#707070" stroke-width="0.2" stroke-linejoin="round"/>
<path d="M11.7013 20.9298C11.3295 20.9298 11.0406 21.2524 11.0406 21.6343V22.8434C11.0406 23.2253 11.3295 23.5479 11.7013 23.5479H13.9442C14.3161 23.5479 14.6049 23.2253 14.6049 22.8434V21.6343C14.6049 21.2524 14.3161 20.9298 13.9442 20.9298H11.7013Z" fill="#707070" stroke="#707070" stroke-width="0.2" stroke-linejoin="round"/>
<path d="M11.6979 20.5626C11.1403 20.5626 10.7008 21.0476 10.7008 21.6299V22.8389C10.7008 23.4211 11.1403 23.9062 11.6979 23.9062H13.9408C14.4985 23.9062 14.9379 23.4211 14.9379 22.8389V21.6299C14.9379 21.0476 14.4985 20.5626 13.9408 20.5626H11.6979ZM11.5736 21.6299C11.5736 21.5443 11.6362 21.488 11.6979 21.488H13.9408C14.0025 21.488 14.0651 21.5443 14.0651 21.6299V22.8389C14.0651 22.9245 14.0025 22.9807 13.9408 22.9807H11.6979C11.6362 22.9807 11.5736 22.9245 11.5736 22.8389V21.6299Z" fill="#707070" stroke="#707070" stroke-width="0.2" stroke-linejoin="round"/>
<path d="M17.7416 16.1816C17.7416 15.9332 17.5532 15.7188 17.3052 15.7188C17.0572 15.7188 16.8687 15.9332 16.8687 16.1816V21.0178C16.8687 21.2662 17.0572 21.4806 17.3052 21.4806C17.5532 21.4806 17.7416 21.2662 17.7416 21.0178V16.1816Z" fill="#707070" stroke="#707070" stroke-width="0.2" stroke-linecap="round"/>
<path d="M12.8169 18.1329C12.5689 18.1329 12.3805 18.3473 12.3805 18.5956C12.3805 18.844 12.5689 19.0584 12.8169 19.0584H21.7884C22.0364 19.0584 22.2248 18.844 22.2248 18.5956C22.2248 18.3473 22.0364 18.1329 21.7884 18.1329H12.8169Z" fill="#707070" stroke="#707070" stroke-width="0.2" stroke-linecap="round"/>
<path d="M13.2533 18.5956C13.2533 18.3473 13.0649 18.1329 12.8169 18.1329C12.5689 18.1329 12.3805 18.3473 12.3805 18.5956V21.0138C12.3805 21.2621 12.5689 21.4765 12.8169 21.4765C13.0649 21.4765 13.2533 21.2621 13.2533 21.0138V18.5956Z" fill="#707070" stroke="#707070" stroke-width="0.2" stroke-linecap="round"/>
<path d="M22.226 18.5956C22.226 18.3473 22.0375 18.1329 21.7896 18.1329C21.5416 18.1329 21.3531 18.3473 21.3531 18.5956V21.0138C21.3531 21.2621 21.5416 21.4765 21.7896 21.4765C22.0375 21.4765 22.226 21.2621 22.226 21.0138V18.5956Z" fill="#707070" stroke="#707070" stroke-width="0.2" stroke-linecap="round"/>
</g>
<defs>
<clipPath id="clip0_1322_503825">
<rect width="24" height="24" fill="white"/>
</clipPath>
</defs>
</svg>
