<svg width="25" height="24" viewBox="0 0 25 24" fill="none" xmlns="http://www.w3.org/2000/svg">
<g clip-path="url(#clip0_1469_66788)">
<path fill-rule="evenodd" clip-rule="evenodd" d="M4.90625 7.54634C4.90625 7.17125 5.21034 6.86719 5.58546 6.86719H15.0097C17.3879 6.86719 19.8631 7.85963 21.5717 9.74967C23.2974 11.6587 24.2001 14.4381 23.4942 17.9071C23.4194 18.2746 23.0607 18.5119 22.6931 18.4371C22.3256 18.3623 22.0882 18.0037 22.163 17.6362C22.7888 14.5614 21.9811 12.2282 20.5639 10.6605C19.1296 9.07383 17.0294 8.22549 15.0097 8.22549H5.58546C5.21034 8.22549 4.90625 7.92143 4.90625 7.54634Z" fill="#707070"/>
<path fill-rule="evenodd" clip-rule="evenodd" d="M5.58546 0C5.96058 0 6.26467 0.304067 6.26467 0.679153V3.42327C6.26467 3.79835 5.96058 4.10242 5.58546 4.10242C5.21034 4.10242 4.90625 3.79835 4.90625 3.42327V0.679153C4.90625 0.304067 5.21034 0 5.58546 0Z" fill="#707070"/>
<path fill-rule="evenodd" clip-rule="evenodd" d="M5.58546 6.86719C5.96058 6.86719 6.26467 7.17125 6.26467 7.54634V10.2905C6.26467 10.6655 5.96058 10.9696 5.58546 10.9696C5.21034 10.9696 4.90625 10.6655 4.90625 10.2905V7.54634C4.90625 7.17125 5.21034 6.86719 5.58546 6.86719Z" fill="#707070"/>
<path fill-rule="evenodd" clip-rule="evenodd" d="M5.11304 0.183318C5.3869 -0.0730004 5.81672 -0.0587939 6.07306 0.215049C6.3294 0.488892 6.31519 0.918673 6.04133 1.17499L5.57718 0.679155L5.11304 0.183318ZM1.91559 5.48135C1.92053 5.48886 1.92573 5.49667 1.93121 5.50479C2.03044 5.65183 2.18321 5.84646 2.38271 6.07986C2.77922 6.54373 3.3156 7.10903 3.8618 7.66283C4.40594 8.21455 4.95111 8.74607 5.36088 9.14024C5.56559 9.33715 5.7361 9.49939 5.85527 9.61226C5.91485 9.66868 5.96157 9.71275 5.9933 9.74261L6.02937 9.77651L6.04069 9.78712C6.31455 10.0434 6.3294 10.4738 6.07306 10.7477C5.81672 11.0215 5.3869 11.0357 5.11304 10.7794L5.51588 10.349C5.11303 10.7794 5.11309 10.7794 5.11304 10.7794L5.09976 10.7669L5.06227 10.7317C5.02958 10.7009 4.98182 10.6559 4.92114 10.5984C4.7998 10.4835 4.62671 10.3188 4.41911 10.1191C4.00427 9.72008 3.44994 9.17968 2.89459 8.6166C2.3413 8.0556 1.77819 7.46323 1.35007 6.96237C1.13727 6.71341 0.946448 6.47391 0.805161 6.26454C0.734895 6.16041 0.667384 6.04987 0.615046 5.93965C0.5708 5.84647 0.5 5.67862 0.5 5.48135C0.5 5.28409 0.5708 5.11623 0.615046 5.02306C0.667384 4.91284 0.734895 4.80229 0.805161 4.69817C0.946448 4.4888 1.13727 4.2493 1.35007 4.00033C1.77819 3.49948 2.3413 2.90711 2.89459 2.34611C3.44994 1.78303 4.00427 1.24263 4.41911 0.843584C4.62671 0.643887 4.7998 0.479192 4.92114 0.364275C4.98182 0.306808 5.02958 0.261767 5.06227 0.230997L5.09976 0.195769L5.11304 0.183318C5.11309 0.183268 5.11304 0.183318 5.57718 0.679155L6.04133 1.17499L6.02937 1.1862L5.9933 1.2201C5.96157 1.24996 5.91485 1.29402 5.85527 1.35045C5.7361 1.46331 5.56559 1.62555 5.36088 1.82247C4.95111 2.21664 4.40594 2.74816 3.8618 3.29988C3.3156 3.85367 2.77922 4.41898 2.38271 4.88285C2.18321 5.11625 2.03044 5.31088 1.93121 5.45792C1.92573 5.46604 1.92053 5.47385 1.91559 5.48135Z" fill="#707070"/>
<path fill-rule="evenodd" clip-rule="evenodd" d="M4.90625 3.42915C4.90625 3.05407 5.21034 2.75 5.58546 2.75H15.0097C17.3343 2.75 19.5926 3.40459 21.3366 5.06381C23.0795 6.72195 24.2229 9.30167 24.4829 12.9816C24.7087 15.7171 23.3899 21.6471 16.4826 23.9678C16.127 24.0872 15.7419 23.8958 15.6224 23.5403C15.5029 23.1847 15.6943 22.7997 16.0499 22.6802C22.2072 20.6115 23.32 15.3873 23.1288 13.0899L23.128 13.0813L23.1281 13.0813C22.8849 9.62877 21.8295 7.40763 20.4002 6.04787C18.9714 4.68856 17.0831 4.10831 15.0097 4.10831H5.58546C5.21034 4.10831 4.90625 3.80424 4.90625 3.42915Z" fill="#707070"/>
</g>
<defs>
<clipPath id="clip0_1469_66788">
<rect width="24" height="24" fill="white" transform="translate(0.5)"/>
</clipPath>
</defs>
</svg>
