<svg width="24" height="24" viewBox="0 0 24 24" fill="none" xmlns="http://www.w3.org/2000/svg">
<path fill-rule="evenodd" clip-rule="evenodd" d="M12.0052 4.00391C12.4028 4.00391 12.7252 4.32626 12.7252 4.72391V12.2848C12.7252 12.6825 12.4028 13.0048 12.0052 13.0048C11.6075 13.0048 11.2852 12.6825 11.2852 12.2848L11.2852 4.72391C11.2852 4.32626 11.6075 4.00391 12.0052 4.00391Z" fill="#707070"/>
<path fill-rule="evenodd" clip-rule="evenodd" d="M12 22.56C17.8321 22.56 22.56 17.8321 22.56 12C22.56 6.16787 17.8321 1.44 12 1.44C6.16787 1.44 1.44 6.16787 1.44 12C1.44 17.8321 6.16787 22.56 12 22.56ZM12 24C18.6274 24 24 18.6274 24 12C24 5.37258 18.6274 0 12 0C5.37258 0 0 5.37258 0 12C0 18.6274 5.37258 24 12 24Z" fill="#707070"/>
<path fill-rule="evenodd" clip-rule="evenodd" d="M12.4736 11.8085C12.7548 12.0897 12.7548 12.5456 12.4736 12.8268L8.87365 16.4268C8.59247 16.708 8.13659 16.708 7.85541 16.4268C7.57424 16.1456 7.57424 15.6897 7.85541 15.4085L11.4554 11.8085C11.7366 11.5274 12.1925 11.5274 12.4736 11.8085Z" fill="#707070"/>
</svg>
