<svg width="708" height="408" viewBox="0 0 708 408" fill="none" xmlns="http://www.w3.org/2000/svg">
<g filter="url(#filter0_d_2547_55395)">
<g clip-path="url(#clip0_2547_55395)">
<rect x="2" y="2" width="700" height="400" rx="3" fill="url(#paint0_linear_2547_55395)"/>
<g filter="url(#filter1_d_2547_55395)">
<path fill-rule="evenodd" clip-rule="evenodd" d="M284.017 399.958C283.819 399.698 283.655 399.39 283.537 399.034L218.154 202.972C217.948 202.355 217.949 201.688 218.155 201.072L283.994 4.05564C284.442 2.71509 285.527 2.06548 286.642 2.00783C286.714 2.00264 286.787 2 286.86 2H702V402H286.86C285.538 402 284.416 401.145 284.017 399.958Z" fill="white"/>
</g>
<path d="M43.5215 391.477L44.7601 398.815L48.351 399.166L47.1067 390.971L43.5215 391.477Z" fill="#FCC9A7"/>
<path d="M44.268 398.31C44.3418 398.051 44.6089 397.953 44.8021 398.108C45.1714 398.419 45.8362 398.793 46.785 398.66C47.7737 398.528 48.1259 397.918 48.2566 397.493C48.3248 397.269 48.535 397.148 48.7225 397.234L55.4441 400.087C55.8191 400.259 56.1146 400.599 56.268 401.024C56.4157 401.427 56.16 401.87 55.785 401.875L44.7737 401.944C44.3646 401.944 44.035 401.553 44.0577 401.076L44.1543 398.752C44.1543 398.712 44.16 398.678 44.1714 398.637L44.268 398.31Z" fill="#010101"/>
<path d="M29.005 357.711H27.5391V400.978H29.005V357.711Z" fill="#010101"/>
<path d="M25.8301 348.814L36.3301 368.334L42.9721 395.451H49.0005L44.6994 365.314L25.8301 348.814Z" fill="#010101"/>
<path d="M34.495 357.072H21.37C19.4893 357.072 17.9609 355.531 17.9609 353.622C17.9609 351.718 19.4837 350.171 21.37 350.171H34.495C36.3757 350.171 37.9041 351.718 37.9041 353.622C37.9041 355.531 36.3757 357.072 34.495 357.072Z" fill="white"/>
<path d="M34.5746 357.073H21.9609V358.35H34.5746V357.073Z" fill="#010101"/>
<path d="M34.5746 390.476H21.9609V391.753H34.5746V390.476Z" fill="#010101"/>
<path d="M27.5904 313.461C25.062 313.15 22.6643 314.697 21.6984 317.079C20.8802 319.086 20.1984 321.996 20.9257 325.372C23.1415 335.707 21.8177 342.856 21.8177 342.856H33.8234L33.778 328.782C33.778 328.782 34.6075 327.143 35.0564 324.998C35.687 321.996 35.4484 321.605 33.7154 318.948L30.028 314.393C30.0336 314.393 29.2097 313.656 27.5904 313.461Z" fill="#F7C100"/>
<path d="M49.4275 323.433C50.2286 321.812 52.1718 321.156 53.7741 321.967C55.3763 322.778 56.0241 324.745 55.2229 326.367C54.4218 327.988 52.4786 328.644 50.8763 327.833C49.2741 327.028 48.6263 325.055 49.4275 323.433Z" fill="#FCC9A7"/>
<path d="M50.1374 322.484L44.0352 328.351L46.3533 330.962L51.109 326.838L50.1374 322.484Z" fill="#FCC9A7"/>
<path d="M23.4763 322.565L34.5161 339.549C34.9422 340.198 35.8172 340.354 36.4366 339.882L49.7604 329.288L47.0615 324.601L36.7547 332.572L29.5502 319.085C28.59 317.061 26.0388 316.446 24.2775 317.803C22.8116 318.93 22.465 321.012 23.4763 322.565Z" fill="#F7C100"/>
<path d="M28.2833 316.031C27.5844 316.026 26.84 315.732 26.2889 315.445C25.7434 315.163 25.4026 314.582 25.4083 313.961L25.5219 302.55L30.448 302.573L30.3344 313.84C30.3287 315.134 29.4083 316.037 28.2833 316.031Z" fill="#FCC9A7"/>
<path d="M30.3683 310.677L28.3342 307.761C28.3342 307.761 27.0899 311.091 30.3569 312.115L30.3683 310.677Z" fill="#F2C09E"/>
<path d="M34.8058 302.596C34.7888 305.995 32.0558 308.733 28.6979 308.716C25.3399 308.698 22.6354 305.932 22.6524 302.533C22.6695 299.134 25.4024 296.396 28.7604 296.414C32.1127 296.431 34.8172 299.197 34.8058 302.596Z" fill="#FCC9A7"/>
<path d="M30.7991 310.712C29.2082 310.706 27.9184 309.389 27.9298 307.779L27.9468 303.569L34.7991 302.597L34.782 306.72C34.7707 308.935 32.9923 310.723 30.7991 310.712Z" fill="#FCC9A7"/>
<path d="M34.6177 303.971L35.9359 305.955C36.1234 306.277 35.8791 306.674 35.487 306.674L33.9473 306.962L34.6177 303.971Z" fill="#FCC9A7"/>
<path d="M27.9558 305.254L30.5409 305.161C30.5409 305.161 30.7625 302.89 31.2682 302.343C31.7739 301.797 32.0296 299.37 32.0296 299.37C32.0296 299.37 30.808 300.883 30.45 302.447L35.8648 302.309C35.8648 302.309 36.6717 295.66 28.4728 295.338C20.2682 295.016 20.4955 302.872 22.1091 304.431C23.3932 305.673 25.4727 308.722 25.4727 308.722C25.4727 308.722 25.3762 305.346 27.9558 305.254Z" fill="#4C1827"/>
<path d="M29.8301 304.448C29.8642 305.42 29.1142 306.231 28.1597 306.266C27.1994 306.3 26.3983 305.541 26.3585 304.575C26.3244 303.603 27.0744 302.792 28.0289 302.752C28.9892 302.717 29.7904 303.476 29.8301 304.448Z" fill="#FCC9A7"/>
<path d="M24.8189 294.487C25.0803 296.667 23.5518 298.645 21.4041 298.916C19.2507 299.18 17.2961 297.633 17.0291 295.453C16.7677 293.274 18.2961 291.295 20.4495 291.031C22.603 290.76 24.5575 292.307 24.8189 294.487Z" fill="#4C1827"/>
<path d="M25.6016 314.749C25.6016 314.749 26.0732 316.238 32.6527 317.624L29.5959 313.415L25.6016 314.749Z" fill="#FCC9A7"/>
<path d="M28.2733 398.792L19.4551 401.846H37.0801L28.2733 398.792Z" fill="#010101"/>
<path d="M28.9371 380.498L24.1133 386.37L27.5792 387.704L32.4201 381.487L28.9371 380.498Z" fill="#FCC9A7"/>
<path d="M24.278 385.57C24.4485 385.369 24.7326 385.38 24.8462 385.605C25.0621 386.042 25.5167 386.651 26.4428 386.916C27.403 387.192 28.4542 386.341 28.7383 386.001C28.886 385.823 29.1303 385.794 29.2667 385.955L35.1701 390.148C35.4428 390.459 35.5792 390.89 35.5564 391.344C35.5337 391.77 35.1246 392.075 34.778 391.925L23.0962 388.935C22.7212 388.768 22.5735 388.273 22.7837 387.848L23.9996 385.927C24.0167 385.892 24.0394 385.858 24.0621 385.829L24.278 385.57Z" fill="#010101"/>
<path d="M21.4726 342.855C21.4726 342.855 17.8589 351.183 30.6999 355.617L39.5749 363.962L25.8362 382.585L31.9783 384.834L48.6601 366.867C49.893 365.412 49.9442 363.18 48.7794 361.662L33.8305 342.85H21.4726V342.855Z" fill="#010101"/>
<path d="M91.346 335.5H47.4766V337.973H91.346V335.5Z" fill="white"/>
<path d="M58.2676 401.858V337.973" stroke="#010101" stroke-width="2.2811" stroke-miterlimit="10"/>
<path d="M80.2051 401.858V337.973" stroke="#010101" stroke-width="2.2811" stroke-miterlimit="10"/>
<path d="M75.0214 334.154H56.7715V335.35H75.0214V334.154Z" fill="#010101"/>
<path d="M75.0217 335.356L80.9308 317.895L79.6921 317.596L73.9023 334.366L75.0217 335.356Z" fill="#010101"/>
<path d="M33.6719 338.249L24.8594 324.687" stroke="#707070" stroke-width="0.7847" stroke-miterlimit="10" stroke-linecap="round" stroke-linejoin="round"/>
<path d="M34.2035 327.609L30.8398 322.226" stroke="#707070" stroke-width="0.7847" stroke-miterlimit="10" stroke-linecap="round" stroke-linejoin="round"/>
<path opacity="0.5" d="M156.09 313.972V347.719C156.09 349.165 156.668 350.552 157.696 351.575C158.724 352.597 160.119 353.172 161.573 353.172L216.984 353.4C217.705 353.402 218.42 353.263 219.087 352.99C219.755 352.717 220.361 352.315 220.872 351.809C221.383 351.302 221.788 350.7 222.065 350.038C222.342 349.375 222.484 348.665 222.484 347.947V314.2L156.09 313.972Z" fill="#9CE5E5"/>
<path d="M137.209 385.971H133.695C131.561 385.971 129.854 383.735 129.854 380.829V322.233C129.854 319.376 131.495 317.09 133.695 317.09H137.209C135.091 317.09 133.367 319.376 133.367 322.233V380.829C133.285 383.735 135.009 385.971 137.209 385.971Z" fill="#FFD500"/>
<path d="M219.432 386.657H210.517C210.414 386.673 210.309 386.666 210.209 386.638C210.109 386.609 210.016 386.559 209.937 386.492C209.858 386.424 209.795 386.341 209.752 386.247C209.708 386.153 209.686 386.05 209.686 385.947C209.686 385.844 209.708 385.741 209.752 385.647C209.795 385.553 209.858 385.47 209.937 385.402C210.016 385.335 210.109 385.285 210.209 385.256C210.309 385.228 210.414 385.221 210.517 385.237H219.432C220.612 385.237 221.743 384.771 222.578 383.941C223.412 383.111 223.881 381.986 223.881 380.812V322.2C223.881 321.619 223.766 321.044 223.542 320.507C223.318 319.97 222.991 319.482 222.578 319.072C222.164 318.661 221.674 318.335 221.134 318.112C220.594 317.89 220.016 317.776 219.432 317.776C219.24 317.776 219.056 317.7 218.921 317.565C218.785 317.43 218.709 317.248 218.709 317.057C218.709 316.867 218.785 316.684 218.921 316.549C219.056 316.415 219.24 316.339 219.432 316.339C220.205 316.339 220.972 316.49 221.687 316.785C222.402 317.08 223.052 317.511 223.599 318.056C224.147 318.6 224.581 319.246 224.877 319.957C225.173 320.668 225.326 321.43 225.326 322.2V380.812C225.326 381.581 225.173 382.343 224.877 383.053C224.58 383.763 224.146 384.408 223.598 384.951C223.051 385.494 222.401 385.924 221.686 386.217C220.971 386.51 220.205 386.659 219.432 386.657Z" fill="#010101"/>
<path d="M205.576 314.494H152.333C152.137 314.494 151.949 314.416 151.81 314.279C151.672 314.141 151.594 313.954 151.594 313.759C151.594 313.564 151.672 313.377 151.81 313.24C151.949 313.102 152.137 313.024 152.333 313.024H205.576C205.772 313.024 205.96 313.102 206.098 313.24C206.237 313.377 206.315 313.564 206.315 313.759C206.315 313.954 206.237 314.141 206.098 314.279C205.96 314.416 205.772 314.494 205.576 314.494Z" fill="#010101"/>
<path d="M151.656 317.809H147.93C147.738 317.809 147.554 317.733 147.419 317.598C147.283 317.463 147.207 317.281 147.207 317.09C147.205 316.995 147.222 316.901 147.258 316.813C147.293 316.724 147.346 316.644 147.414 316.577C147.481 316.51 147.562 316.457 147.651 316.422C147.739 316.387 147.834 316.37 147.93 316.372H151.656C151.848 316.372 152.032 316.447 152.167 316.582C152.303 316.717 152.379 316.9 152.379 317.09C152.379 317.281 152.303 317.463 152.167 317.598C152.032 317.733 151.848 317.809 151.656 317.809Z" fill="#010101"/>
<path d="M217.38 320.633H140.84C139.008 320.633 137.523 322.109 137.523 323.931V378.968C137.523 380.789 139.008 382.265 140.84 382.265H217.38C219.212 382.265 220.697 380.789 220.697 378.968V323.931C220.697 322.109 219.212 320.633 217.38 320.633Z" fill="#FFD500"/>
<path opacity="0.5" d="M231.759 352.306C231.327 353.275 230.624 354.098 229.732 354.678C228.841 355.257 227.8 355.568 226.735 355.571L171.308 355.327C169.855 355.322 168.463 354.746 167.435 353.725C166.408 352.703 165.828 351.318 165.824 349.874V317.351H168.862V348.91C168.866 349.812 169.229 350.676 169.872 351.313C170.515 351.949 171.386 352.306 172.293 352.306H231.759Z" fill="#3D3344"/>
<path d="M137.702 345.302C137.638 345.309 137.574 345.303 137.513 345.283C137.452 345.263 137.397 345.23 137.35 345.186C137.303 345.143 137.266 345.09 137.242 345.031C137.218 344.972 137.207 344.909 137.209 344.845V323.849C137.205 323.35 137.301 322.856 137.49 322.394C137.68 321.933 137.961 321.514 138.315 321.161C138.67 320.808 139.091 320.53 139.556 320.341C140.02 320.152 140.517 320.057 141.018 320.061H155.006C155.067 320.059 155.128 320.069 155.185 320.091C155.242 320.114 155.293 320.147 155.337 320.19C155.38 320.233 155.414 320.284 155.436 320.341C155.458 320.397 155.469 320.458 155.466 320.518C155.466 320.64 155.418 320.756 155.331 320.842C155.245 320.927 155.128 320.976 155.006 320.976H141.018C140.261 320.976 139.534 321.275 138.998 321.808C138.463 322.34 138.162 323.063 138.162 323.816V344.845C138.162 344.966 138.113 345.082 138.027 345.168C137.941 345.254 137.824 345.302 137.702 345.302Z" fill="#010101"/>
<path d="M217.558 382.624H141.018C140.517 382.629 140.019 382.534 139.555 382.345C139.091 382.156 138.67 381.877 138.315 381.525C137.96 381.172 137.68 380.753 137.49 380.291C137.3 379.83 137.205 379.335 137.209 378.837V357.955C137.209 357.895 137.221 357.836 137.244 357.78C137.267 357.725 137.301 357.674 137.344 357.632C137.386 357.589 137.437 357.556 137.493 357.533C137.549 357.51 137.608 357.498 137.669 357.498C137.789 357.502 137.904 357.552 137.989 357.636C138.075 357.721 138.124 357.835 138.129 357.955V378.837C138.129 379.59 138.43 380.313 138.965 380.846C139.501 381.378 140.228 381.678 140.985 381.678H217.558C218.316 381.678 219.043 381.378 219.578 380.846C220.114 380.313 220.415 379.59 220.415 378.837V355.555C220.413 355.495 220.423 355.434 220.445 355.377C220.468 355.321 220.501 355.27 220.545 355.227C220.588 355.184 220.639 355.15 220.696 355.128C220.753 355.106 220.814 355.096 220.875 355.098C220.995 355.102 221.11 355.152 221.195 355.236C221.281 355.321 221.33 355.435 221.335 355.555V378.837C221.339 379.333 221.244 379.824 221.057 380.284C220.869 380.743 220.591 381.161 220.24 381.513C219.889 381.865 219.471 382.145 219.011 382.336C218.551 382.526 218.057 382.624 217.558 382.624Z" fill="#010101"/>
<path d="M137.702 355.506C137.638 355.513 137.574 355.506 137.513 355.486C137.452 355.466 137.397 355.434 137.35 355.39C137.303 355.347 137.266 355.294 137.242 355.235C137.218 355.176 137.207 355.112 137.209 355.049V350.265C137.207 350.205 137.217 350.144 137.24 350.087C137.262 350.031 137.296 349.98 137.339 349.937C137.382 349.894 137.434 349.86 137.49 349.838C137.547 349.816 137.608 349.806 137.669 349.808C137.791 349.808 137.908 349.856 137.994 349.942C138.08 350.028 138.129 350.144 138.129 350.265V355.049C138.129 355.164 138.085 355.276 138.006 355.361C137.927 355.446 137.818 355.498 137.702 355.506Z" fill="#010101"/>
<path opacity="0.35" d="M189.191 373.825C189.635 373.825 189.996 373.466 189.996 373.024C189.996 372.583 189.635 372.225 189.191 372.225C188.747 372.225 188.387 372.583 188.387 373.024C188.387 373.466 188.747 373.825 189.191 373.825Z" fill="#8E6F00"/>
<path opacity="0.5" d="M217.378 378.526H192.161C192.168 378.467 192.168 378.407 192.161 378.347C192.161 378.018 192.029 377.702 191.795 377.469C191.561 377.237 191.244 377.106 190.913 377.106C190.582 377.106 190.265 377.237 190.031 377.469C189.797 377.702 189.665 378.018 189.665 378.347C189.665 378.347 189.665 378.461 189.665 378.526H187.777C187.822 378.4 187.849 378.268 187.859 378.135C187.859 377.749 187.705 377.38 187.431 377.107C187.157 376.835 186.786 376.682 186.398 376.682C186.01 376.682 185.639 376.835 185.365 377.107C185.091 377.38 184.937 377.749 184.937 378.135C184.92 378.265 184.92 378.397 184.937 378.526H140.838C139.967 378.526 139.132 378.182 138.516 377.57C137.901 376.958 137.555 376.127 137.555 375.261V378.984C137.555 379.85 137.901 380.68 138.516 381.293C139.132 381.905 139.967 382.249 140.838 382.249H217.378C218.249 382.249 219.085 381.905 219.7 381.293C220.316 380.68 220.662 379.85 220.662 378.984V375.229C220.667 375.66 220.585 376.088 220.422 376.488C220.259 376.888 220.018 377.252 219.712 377.559C219.407 377.865 219.043 378.109 218.643 378.275C218.242 378.441 217.813 378.527 217.378 378.526Z" fill="#8E6F00"/>
<path opacity="0.35" d="M186.229 372.681C186.483 372.681 186.689 372.477 186.689 372.224C186.689 371.972 186.483 371.767 186.229 371.767C185.975 371.767 185.77 371.972 185.77 372.224C185.77 372.477 185.975 372.681 186.229 372.681Z" fill="#8E6F00"/>
<path opacity="0.35" d="M192.49 373.612C192.662 373.612 192.802 373.473 192.802 373.302C192.802 373.131 192.662 372.992 192.49 372.992C192.317 372.992 192.178 373.131 192.178 373.302C192.178 373.473 192.317 373.612 192.49 373.612Z" fill="#8E6F00"/>
<path opacity="0.35" d="M190.416 370.788C190.797 370.788 191.106 370.481 191.106 370.102C191.106 369.723 190.797 369.417 190.416 369.417C190.035 369.417 189.727 369.723 189.727 370.102C189.727 370.481 190.035 370.788 190.416 370.788Z" fill="#8E6F00"/>
<path opacity="0.35" d="M183.426 372.828C183.807 372.828 184.115 372.521 184.115 372.143C184.115 371.764 183.807 371.457 183.426 371.457C183.045 371.457 182.736 371.764 182.736 372.143C182.736 372.521 183.045 372.828 183.426 372.828Z" fill="#8E6F00"/>
<path d="M155.302 341.286C155.302 340.357 154.545 339.604 153.611 339.604C152.677 339.604 151.92 340.357 151.92 341.286V351.359C151.92 352.288 152.677 353.041 153.611 353.041C154.545 353.041 155.302 352.288 155.302 351.359V341.286Z" fill="#3D3344"/>
<path d="M233.007 307.261H160.013C159.652 307.259 159.293 307.308 158.946 307.408H159.882C158.844 307.394 157.841 307.787 157.091 308.502C156.37 309.254 155.97 310.255 155.975 311.294V361.906C156.013 362.946 156.455 363.93 157.209 364.652C157.962 365.373 158.967 365.776 160.013 365.776H233.007C234.076 365.776 235.101 365.355 235.858 364.605C236.615 363.855 237.042 362.838 237.046 361.776V311.294C237.046 310.227 236.621 309.204 235.864 308.448C235.107 307.692 234.08 307.266 233.007 307.261Z" fill="white"/>
<path opacity="0.2" d="M237.078 311.898V362.51C237.074 363.573 236.646 364.59 235.889 365.34C235.132 366.089 234.107 366.51 233.039 366.51H182.57C260.867 366.412 207.345 321.449 228.032 307.849H232.957C233.497 307.838 234.034 307.935 234.535 308.134C235.037 308.333 235.494 308.63 235.878 309.007C236.262 309.385 236.566 309.835 236.772 310.332C236.978 310.828 237.082 311.361 237.078 311.898Z" fill="#D8D7D7"/>
<path d="M173.707 319.392H167.534C167.39 319.392 167.253 319.335 167.151 319.234C167.049 319.133 166.992 318.996 166.992 318.853C166.992 318.71 167.049 318.573 167.151 318.472C167.253 318.371 167.39 318.314 167.534 318.314H173.707C173.851 318.314 173.989 318.371 174.09 318.472C174.192 318.573 174.249 318.71 174.249 318.853C174.249 318.996 174.192 319.133 174.09 319.234C173.989 319.335 173.851 319.392 173.707 319.392Z" fill="white"/>
<path d="M173.705 339.375H167.532C167.454 339.389 167.374 339.386 167.298 339.365C167.222 339.345 167.151 339.308 167.09 339.258C167.029 339.207 166.981 339.144 166.947 339.073C166.914 339.001 166.896 338.924 166.896 338.845C166.896 338.766 166.914 338.689 166.947 338.617C166.981 338.546 167.029 338.483 167.09 338.432C167.151 338.382 167.222 338.345 167.298 338.325C167.374 338.304 167.454 338.301 167.532 338.314H173.705C173.783 338.301 173.863 338.304 173.94 338.325C174.016 338.345 174.087 338.382 174.148 338.432C174.208 338.483 174.257 338.546 174.29 338.617C174.324 338.689 174.341 338.766 174.341 338.845C174.341 338.924 174.324 339.001 174.29 339.073C174.257 339.144 174.208 339.207 174.148 339.258C174.087 339.308 174.016 339.345 173.94 339.365C173.863 339.386 173.783 339.389 173.705 339.375Z" fill="white"/>
<path d="M173.705 349.449H167.532C167.454 349.462 167.374 349.459 167.298 349.439C167.222 349.418 167.151 349.381 167.09 349.331C167.029 349.28 166.981 349.217 166.947 349.146C166.914 349.074 166.896 348.997 166.896 348.918C166.896 348.84 166.914 348.762 166.947 348.69C166.981 348.619 167.029 348.556 167.09 348.505C167.151 348.455 167.222 348.418 167.298 348.398C167.374 348.377 167.454 348.374 167.532 348.388H173.705C173.783 348.374 173.863 348.377 173.94 348.398C174.016 348.418 174.087 348.455 174.148 348.505C174.208 348.556 174.257 348.619 174.29 348.69C174.324 348.762 174.341 348.84 174.341 348.918C174.341 348.997 174.324 349.074 174.29 349.146C174.257 349.217 174.208 349.28 174.148 349.331C174.087 349.381 174.016 349.418 173.94 349.439C173.863 349.459 173.783 349.462 173.705 349.449Z" fill="white"/>
<path d="M160.193 366.249H155.99C154.925 366.24 153.906 365.813 153.156 365.061C152.405 364.309 151.984 363.292 151.984 362.232V311.702C151.984 310.642 152.405 309.626 153.156 308.873C153.906 308.121 154.925 307.694 155.99 307.686H160.193C159.663 307.686 159.138 307.789 158.648 307.991C158.158 308.193 157.712 308.489 157.337 308.862C156.962 309.235 156.665 309.678 156.462 310.165C156.259 310.652 156.155 311.174 156.155 311.702V362.314C156.176 363.365 156.611 364.366 157.366 365.102C158.121 365.837 159.136 366.249 160.193 366.249Z" fill="#FFD500"/>
<path opacity="0.6" d="M155.515 317.433C155.515 316.504 154.758 315.751 153.824 315.751C152.89 315.751 152.133 316.504 152.133 317.433V324.29C152.133 325.219 152.89 325.971 153.824 325.971C154.758 325.971 155.515 325.219 155.515 324.29V317.433Z" fill="#8E6F00"/>
<path d="M230.033 314.331H159.436C159.336 314.331 159.24 314.291 159.169 314.221C159.098 314.15 159.059 314.055 159.059 313.955C159.059 313.856 159.098 313.76 159.169 313.69C159.24 313.619 159.336 313.58 159.436 313.58H230.033C230.133 313.58 230.229 313.619 230.3 313.69C230.371 313.76 230.411 313.856 230.411 313.955C230.411 314.055 230.371 314.15 230.3 314.221C230.229 314.291 230.133 314.331 230.033 314.331Z" fill="#010101"/>
<path d="M214.245 333.122H195.561C195.441 333.118 195.326 333.069 195.241 332.984C195.155 332.899 195.106 332.785 195.102 332.665C195.102 332.544 195.15 332.427 195.236 332.342C195.322 332.256 195.439 332.208 195.561 332.208H214.245C214.306 332.206 214.367 332.216 214.423 332.238C214.48 332.26 214.532 332.294 214.575 332.337C214.618 332.38 214.652 332.431 214.674 332.487C214.696 332.544 214.707 332.604 214.705 332.665C214.705 332.786 214.656 332.903 214.57 332.988C214.484 333.074 214.367 333.122 214.245 333.122Z" fill="#010101"/>
<path d="M214.242 328.665H195.558C195.491 328.678 195.423 328.676 195.357 328.659C195.292 328.643 195.231 328.612 195.179 328.569C195.126 328.526 195.084 328.472 195.056 328.411C195.027 328.35 195.012 328.284 195.012 328.216C195.012 328.149 195.027 328.083 195.056 328.022C195.084 327.961 195.126 327.907 195.179 327.864C195.231 327.821 195.292 327.79 195.357 327.774C195.423 327.757 195.491 327.755 195.558 327.767H214.242C214.308 327.755 214.376 327.757 214.442 327.774C214.508 327.79 214.569 327.821 214.621 327.864C214.673 327.907 214.715 327.961 214.744 328.022C214.773 328.083 214.788 328.149 214.788 328.216C214.788 328.284 214.773 328.35 214.744 328.411C214.715 328.472 214.673 328.526 214.621 328.569C214.569 328.612 214.508 328.643 214.442 328.659C214.376 328.676 214.308 328.678 214.242 328.665Z" fill="#010101"/>
<path d="M224.224 337.579H195.558C195.491 337.592 195.423 337.59 195.357 337.573C195.292 337.557 195.231 337.526 195.179 337.483C195.126 337.44 195.084 337.386 195.056 337.325C195.027 337.264 195.012 337.198 195.012 337.13C195.012 337.063 195.027 336.997 195.056 336.936C195.084 336.875 195.126 336.821 195.179 336.778C195.231 336.735 195.292 336.704 195.357 336.688C195.423 336.671 195.491 336.669 195.558 336.681H224.224C224.29 336.669 224.359 336.671 224.424 336.688C224.49 336.704 224.551 336.735 224.603 336.778C224.655 336.821 224.697 336.875 224.726 336.936C224.755 336.997 224.77 337.063 224.77 337.13C224.77 337.198 224.755 337.264 224.726 337.325C224.697 337.386 224.655 337.44 224.603 337.483C224.551 337.526 224.49 337.557 224.424 337.573C224.359 337.59 224.29 337.592 224.224 337.579Z" fill="#010101"/>
<path d="M163.575 312.159C163.348 312.159 163.126 312.092 162.937 311.967C162.748 311.841 162.6 311.663 162.513 311.454C162.426 311.245 162.404 311.015 162.448 310.793C162.492 310.572 162.602 310.368 162.762 310.208C162.923 310.048 163.128 309.94 163.351 309.895C163.574 309.851 163.805 309.874 164.015 309.961C164.225 310.047 164.404 310.194 164.531 310.381C164.657 310.569 164.724 310.79 164.724 311.016C164.724 311.319 164.603 311.61 164.388 311.825C164.172 312.039 163.88 312.159 163.575 312.159ZM163.575 310.331C163.474 310.315 163.372 310.322 163.274 310.35C163.176 310.377 163.085 310.426 163.008 310.492C162.931 310.558 162.869 310.639 162.826 310.731C162.784 310.823 162.762 310.923 162.762 311.025C162.762 311.126 162.784 311.226 162.826 311.318C162.869 311.41 162.931 311.491 163.008 311.557C163.085 311.623 163.176 311.672 163.274 311.7C163.372 311.727 163.474 311.734 163.575 311.718C163.676 311.734 163.778 311.727 163.876 311.7C163.974 311.672 164.065 311.623 164.142 311.557C164.219 311.491 164.281 311.41 164.324 311.318C164.366 311.226 164.388 311.126 164.388 311.025C164.388 310.923 164.366 310.823 164.324 310.731C164.281 310.639 164.219 310.558 164.142 310.492C164.065 310.426 163.974 310.377 163.876 310.35C163.778 310.322 163.676 310.315 163.575 310.331Z" fill="#010101"/>
<path d="M167.563 312.159C167.412 312.159 167.263 312.13 167.123 312.072C166.984 312.015 166.857 311.931 166.751 311.825C166.644 311.718 166.559 311.592 166.501 311.454C166.444 311.315 166.414 311.166 166.414 311.016C166.414 310.866 166.444 310.718 166.501 310.579C166.559 310.44 166.644 310.314 166.751 310.208C166.857 310.102 166.984 310.018 167.123 309.961C167.263 309.903 167.412 309.874 167.563 309.874C167.714 309.874 167.864 309.903 168.003 309.961C168.143 310.018 168.269 310.102 168.376 310.208C168.483 310.314 168.567 310.44 168.625 310.579C168.683 310.718 168.713 310.866 168.713 311.016C168.713 311.166 168.683 311.315 168.625 311.454C168.567 311.592 168.483 311.718 168.376 311.825C168.269 311.931 168.143 312.015 168.003 312.072C167.864 312.13 167.714 312.159 167.563 312.159ZM167.563 310.331C167.422 310.327 167.284 310.366 167.165 310.442C167.046 310.518 166.953 310.628 166.898 310.756C166.842 310.885 166.827 311.028 166.854 311.166C166.88 311.303 166.948 311.43 167.048 311.529C167.148 311.628 167.275 311.695 167.413 311.722C167.552 311.748 167.695 311.733 167.825 311.678C167.954 311.623 168.064 311.53 168.141 311.412C168.217 311.295 168.256 311.157 168.253 311.016C168.262 310.921 168.251 310.825 168.22 310.734C168.19 310.643 168.141 310.559 168.076 310.489C168.011 310.418 167.931 310.362 167.843 310.323C167.755 310.285 167.66 310.265 167.563 310.265V310.331Z" fill="#010101"/>
<path d="M171.54 312.159C171.313 312.159 171.09 312.092 170.901 311.967C170.712 311.841 170.565 311.663 170.478 311.454C170.391 311.245 170.368 311.015 170.413 310.793C170.457 310.572 170.567 310.368 170.727 310.208C170.888 310.048 171.093 309.94 171.316 309.895C171.539 309.851 171.77 309.874 171.98 309.961C172.19 310.047 172.369 310.194 172.495 310.381C172.622 310.569 172.689 310.79 172.689 311.016C172.689 311.319 172.568 311.61 172.352 311.825C172.137 312.039 171.845 312.159 171.54 312.159ZM171.54 310.331C171.373 310.356 171.221 310.44 171.111 310.567C171.002 310.695 170.941 310.857 170.941 311.025C170.941 311.192 171.002 311.354 171.111 311.482C171.221 311.609 171.373 311.693 171.54 311.718C171.64 311.734 171.743 311.727 171.841 311.7C171.939 311.672 172.03 311.623 172.107 311.557C172.184 311.491 172.246 311.41 172.289 311.318C172.331 311.226 172.353 311.126 172.353 311.025C172.353 310.923 172.331 310.823 172.289 310.731C172.246 310.639 172.184 310.558 172.107 310.492C172.03 310.426 171.939 310.377 171.841 310.35C171.743 310.322 171.64 310.315 171.54 310.331Z" fill="#010101"/>
<path d="M144.86 318.085C145.377 318.085 145.795 317.669 145.795 317.155C145.795 316.641 145.377 316.224 144.86 316.224C144.343 316.224 143.924 316.641 143.924 317.155C143.924 317.669 144.343 318.085 144.86 318.085Z" fill="#010101"/>
<path d="M137.766 348.584C138.283 348.584 138.702 348.167 138.702 347.653C138.702 347.139 138.283 346.723 137.766 346.723C137.249 346.723 136.83 347.139 136.83 347.653C136.83 348.167 137.249 348.584 137.766 348.584Z" fill="#010101"/>
<path d="M143.463 332.045H143.299C143.247 332.024 143.201 331.992 143.162 331.952C143.122 331.912 143.092 331.865 143.072 331.813C143.052 331.761 143.043 331.705 143.045 331.65C143.048 331.594 143.061 331.54 143.086 331.49L145.286 326.314C145.329 326.218 145.408 326.143 145.506 326.103C145.604 326.064 145.713 326.063 145.811 326.102C145.862 326.12 145.908 326.148 145.947 326.184C145.986 326.221 146.017 326.266 146.037 326.315C146.057 326.365 146.066 326.418 146.064 326.471C146.062 326.524 146.049 326.577 146.025 326.624L143.775 331.784C143.752 331.851 143.711 331.911 143.656 331.957C143.601 332.003 143.534 332.034 143.463 332.045Z" fill="#8E6F00"/>
<path d="M146.389 329.547H146.225C146.128 329.504 146.052 329.426 146.013 329.329C145.973 329.231 145.972 329.122 146.011 329.025L147.193 326.249C147.237 326.153 147.315 326.078 147.413 326.038C147.511 325.999 147.621 325.998 147.719 326.037C147.815 326.08 147.891 326.158 147.931 326.256C147.97 326.353 147.971 326.462 147.932 326.559L146.75 329.335C146.715 329.399 146.662 329.453 146.599 329.49C146.535 329.528 146.463 329.547 146.389 329.547Z" fill="#8E6F00"/>
<path opacity="0.6" d="M154.085 330.624C154.964 330.624 155.677 329.915 155.677 329.041C155.677 328.166 154.964 327.457 154.085 327.457C153.205 327.457 152.492 328.166 152.492 329.041C152.492 329.915 153.205 330.624 154.085 330.624Z" fill="#8E6F00"/>
<path d="M171.394 366.641H159.721C158.506 366.641 157.341 366.161 156.482 365.307C155.623 364.452 155.141 363.294 155.141 362.086V311.555C155.141 310.347 155.623 309.188 156.482 308.334C157.341 307.48 158.506 307 159.721 307H171.394C171.538 307 171.676 307.057 171.777 307.158C171.879 307.259 171.936 307.396 171.936 307.539C171.936 307.682 171.879 307.819 171.777 307.92C171.676 308.021 171.538 308.078 171.394 308.078H159.721C158.794 308.078 157.904 308.444 157.248 309.096C156.593 309.748 156.224 310.633 156.224 311.555V362.167C156.224 363.09 156.593 363.974 157.248 364.626C157.904 365.279 158.794 365.645 159.721 365.645H171.394C171.538 365.645 171.676 365.702 171.777 365.803C171.879 365.904 171.936 366.041 171.936 366.184C171.936 366.327 171.879 366.464 171.777 366.565C171.676 366.666 171.538 366.722 171.394 366.722V366.641Z" fill="#010101"/>
<path d="M233.339 366.641H156.174C154.96 366.641 153.794 366.161 152.935 365.307C152.076 364.452 151.594 363.294 151.594 362.086V311.555C151.594 310.355 152.07 309.204 152.918 308.351C153.766 307.498 154.919 307.013 156.125 307H233.289C234.504 307 235.669 307.48 236.528 308.334C237.387 309.188 237.87 310.347 237.87 311.555V362.167C237.849 363.353 237.363 364.483 236.517 365.319C235.671 366.154 234.531 366.628 233.339 366.641ZM156.125 308.078C155.198 308.078 154.308 308.444 153.652 309.096C152.996 309.748 152.628 310.633 152.628 311.555V362.167C152.628 363.09 152.996 363.974 153.652 364.626C154.308 365.279 155.198 365.645 156.125 365.645H233.289C234.217 365.645 235.106 365.279 235.762 364.626C236.418 363.974 236.786 363.09 236.786 362.167V311.555C236.786 310.641 236.425 309.764 235.78 309.113C235.134 308.462 234.257 308.09 233.339 308.078H156.125Z" fill="#010101"/>
<path opacity="0.6" d="M131.411 354.755H131.395C130.497 354.755 129.77 355.478 129.77 356.371V366.428C129.77 367.321 130.497 368.045 131.395 368.045H131.411C132.309 368.045 133.037 367.321 133.037 366.428V356.371C133.037 355.478 132.309 354.755 131.411 354.755Z" fill="#8E6F00"/>
<path d="M202.306 386.69H134.894C133.331 386.69 131.832 386.072 130.726 384.973C129.621 383.874 129 382.383 129 380.829V322.233C129 320.678 129.621 319.187 130.726 318.088C131.832 316.989 133.331 316.372 134.894 316.372H141.97C142.065 316.372 142.159 316.39 142.247 316.426C142.334 316.462 142.414 316.515 142.481 316.582C142.548 316.649 142.601 316.728 142.638 316.815C142.674 316.902 142.693 316.996 142.693 317.09C142.693 317.28 142.616 317.463 142.481 317.598C142.345 317.733 142.162 317.808 141.97 317.808H134.894C133.714 317.808 132.582 318.274 131.748 319.104C130.914 319.934 130.445 321.059 130.445 322.233V380.829C130.445 382.002 130.914 383.128 131.748 383.957C132.582 384.787 133.714 385.253 134.894 385.253H202.306C202.498 385.253 202.681 385.329 202.817 385.464C202.952 385.598 203.028 385.781 203.028 385.972C203.028 386.162 202.952 386.345 202.817 386.48C202.681 386.614 202.498 386.69 202.306 386.69Z" fill="#010101"/>
<path d="M138.293 386.428C136.8 386.428 135.368 385.838 134.312 384.788C133.255 383.738 132.662 382.313 132.662 380.828V322.232C132.66 321.496 132.804 320.767 133.086 320.087C133.369 319.406 133.783 318.788 134.307 318.268C134.83 317.747 135.452 317.335 136.136 317.054C136.82 316.774 137.553 316.63 138.293 316.632C138.354 316.632 138.414 316.644 138.469 316.667C138.525 316.69 138.576 316.724 138.619 316.766C138.661 316.809 138.695 316.859 138.718 316.915C138.741 316.97 138.753 317.029 138.753 317.089C138.749 317.209 138.699 317.323 138.614 317.408C138.529 317.493 138.414 317.543 138.293 317.547C137.674 317.544 137.06 317.664 136.488 317.899C135.915 318.134 135.395 318.479 134.957 318.914C134.519 319.35 134.172 319.867 133.936 320.437C133.7 321.006 133.579 321.616 133.582 322.232V380.828C133.582 382.071 134.078 383.263 134.962 384.142C135.845 385.02 137.044 385.514 138.293 385.514C138.354 385.514 138.414 385.526 138.469 385.549C138.525 385.572 138.576 385.605 138.619 385.648C138.661 385.69 138.695 385.741 138.718 385.796C138.741 385.852 138.753 385.911 138.753 385.971C138.749 386.091 138.699 386.205 138.614 386.29C138.529 386.375 138.414 386.424 138.293 386.428Z" fill="#010101"/>
<path d="M188.155 321.074H164.218C163.402 321.074 162.74 321.732 162.74 322.543V342.461C162.74 343.273 163.402 343.931 164.218 343.931H188.155C188.971 343.931 189.633 343.273 189.633 342.461V322.543C189.633 321.732 188.971 321.074 188.155 321.074Z" fill="#FFD500"/>
<path d="M189.289 322.461V342.363C189.289 342.757 189.132 343.135 188.852 343.414C188.571 343.692 188.191 343.849 187.795 343.849H173.232C181.043 338.578 186.629 330.634 188.928 321.53C189.16 321.785 189.289 322.117 189.289 322.461Z" fill="#A38800"/>
<path d="M188.103 344.551H164.215C163.701 344.551 163.208 344.348 162.845 343.987C162.482 343.625 162.277 343.135 162.277 342.624V322.673C162.277 322.162 162.482 321.672 162.845 321.311C163.208 320.95 163.701 320.747 164.215 320.747H188.103C188.361 320.743 188.617 320.789 188.857 320.884C189.096 320.978 189.315 321.119 189.5 321.298C189.684 321.478 189.832 321.691 189.933 321.927C190.034 322.163 190.087 322.417 190.089 322.673V342.575C190.094 342.836 190.045 343.095 189.947 343.337C189.849 343.578 189.703 343.798 189.517 343.982C189.332 344.166 189.111 344.312 188.868 344.41C188.625 344.507 188.365 344.555 188.103 344.551ZM164.215 321.694C164.081 321.694 163.949 321.72 163.825 321.771C163.702 321.822 163.589 321.896 163.495 321.99C163.4 322.084 163.325 322.196 163.274 322.319C163.223 322.441 163.197 322.573 163.197 322.706V342.575C163.197 342.708 163.223 342.84 163.274 342.963C163.325 343.086 163.4 343.197 163.495 343.291C163.589 343.385 163.702 343.46 163.825 343.511C163.949 343.562 164.081 343.588 164.215 343.588H188.103C188.374 343.588 188.635 343.482 188.828 343.292C189.022 343.103 189.133 342.845 189.137 342.575V322.673C189.124 322.409 189.01 322.16 188.817 321.978C188.625 321.795 188.369 321.694 188.103 321.694H164.215Z" fill="#010101"/>
</g>
</g>
<defs>
<filter id="filter0_d_2547_55395" x="0" y="0" width="708" height="408" filterUnits="userSpaceOnUse" color-interpolation-filters="sRGB">
<feFlood flood-opacity="0" result="BackgroundImageFix"/>
<feColorMatrix in="SourceAlpha" type="matrix" values="0 0 0 0 0 0 0 0 0 0 0 0 0 0 0 0 0 0 127 0" result="hardAlpha"/>
<feOffset dx="2" dy="2"/>
<feGaussianBlur stdDeviation="2"/>
<feComposite in2="hardAlpha" operator="out"/>
<feColorMatrix type="matrix" values="0 0 0 0 0 0 0 0 0 0 0 0 0 0 0 0 0 0 0.25 0"/>
<feBlend mode="normal" in2="BackgroundImageFix" result="effect1_dropShadow_2547_55395"/>
<feBlend mode="normal" in="SourceGraphic" in2="effect1_dropShadow_2547_55395" result="shape"/>
</filter>
<filter id="filter1_d_2547_55395" x="186" y="-28" width="544" height="460" filterUnits="userSpaceOnUse" color-interpolation-filters="sRGB">
<feFlood flood-opacity="0" result="BackgroundImageFix"/>
<feColorMatrix in="SourceAlpha" type="matrix" values="0 0 0 0 0 0 0 0 0 0 0 0 0 0 0 0 0 0 127 0" result="hardAlpha"/>
<feOffset dx="-2"/>
<feGaussianBlur stdDeviation="15"/>
<feComposite in2="hardAlpha" operator="out"/>
<feColorMatrix type="matrix" values="0 0 0 0 0 0 0 0 0 0 0 0 0 0 0 0 0 0 0.25 0"/>
<feBlend mode="normal" in2="BackgroundImageFix" result="effect1_dropShadow_2547_55395"/>
<feBlend mode="normal" in="SourceGraphic" in2="effect1_dropShadow_2547_55395" result="shape"/>
</filter>
<linearGradient id="paint0_linear_2547_55395" x1="2" y1="2" x2="289" y2="402" gradientUnits="userSpaceOnUse">
<stop offset="0.00194189" stop-color="#FFD500"/>
<stop offset="1" stop-color="#FCEABB"/>
</linearGradient>
<clipPath id="clip0_2547_55395">
<rect x="2" y="2" width="700" height="400" rx="3" fill="white"/>
</clipPath>
</defs>
</svg>
