<svg width="22" height="24" viewBox="0 0 22 24" fill="none" xmlns="http://www.w3.org/2000/svg">
<ellipse cx="10.8749" cy="6.48064" rx="5.28898" ry="5.48064" stroke="#707070"/>
<path d="M5.08143 12.1345L5.36699 11.724L5.08143 12.1345ZM16.6921 12.1345L16.955 12.5598L16.9665 12.5526L16.9777 12.5449L16.6921 12.1345ZM2.41184 20.7303L2.0798 21.1041L2.41184 20.7303ZM4.79586 12.5449C6.77571 13.9224 8.55599 14.739 10.5051 14.7809C12.4503 14.8226 14.4785 14.0909 16.955 12.5598L16.4292 11.7092C14.0258 13.1951 12.194 13.8169 10.5265 13.7811C8.86288 13.7454 7.27778 13.0535 5.36699 11.724L4.79586 12.5449ZM16.9777 12.5449C17.0643 12.4846 17.1924 12.4507 17.399 12.4961C17.6131 12.5431 17.8804 12.6711 18.1789 12.8936C18.7744 13.3376 19.4015 14.089 19.8556 14.9869C20.3093 15.8839 20.5686 16.8839 20.4841 17.8203C20.4011 18.7394 19.9864 19.6222 19.0377 20.3294L19.6354 21.1311C20.8217 20.2468 21.3726 19.1001 21.4801 17.9102C21.5859 16.7375 21.2604 15.5488 20.748 14.5356C20.236 13.5232 19.5157 12.6429 18.7766 12.0919C18.4078 11.817 18.0111 11.6067 17.6135 11.5193C17.2085 11.4304 16.7774 11.466 16.4065 11.724L16.9777 12.5449ZM19.0377 20.3294C17.0287 21.8271 13.7327 22.5378 10.4892 22.4988C8.87814 22.4795 7.30655 22.275 5.94888 21.9047C4.58412 21.5325 3.47118 21.0024 2.74388 20.3564L2.0798 21.1041C2.96605 21.8913 4.24174 22.4756 5.68574 22.8695C7.13683 23.2653 8.79412 23.4785 10.4772 23.4987C13.8217 23.5389 17.3745 22.8165 19.6354 21.1311L19.0377 20.3294ZM2.74388 20.3564C1.13692 18.9291 1.26392 16.7456 2.12365 14.9363C2.54857 14.0421 3.12795 13.3035 3.67977 12.8718C4.27087 12.4093 4.63003 12.4295 4.79586 12.5449L5.36699 11.724C4.61784 11.2028 3.72302 11.5682 3.06353 12.0842C2.36477 12.631 1.69695 13.5043 1.22043 14.5072C0.277302 16.492 -0.0155083 19.243 2.0798 21.1041L2.74388 20.3564Z" fill="#707070"/>
</svg>
