<svg width="20" height="22" viewBox="0 0 20 22" fill="none" xmlns="http://www.w3.org/2000/svg">
<path d="M3 9.5C2.72386 9.5 2.5 9.72386 2.5 10C2.5 10.2761 2.72386 10.5 3 10.5V9.5ZM17 10.5C17.2761 10.5 17.5 10.2761 17.5 10C17.5 9.72386 17.2761 9.5 17 9.5V10.5ZM3 10.5H17V9.5H3V10.5Z" fill="#707070"/>
<path d="M3 10C2.00028 10 1 10 1 12M17 10C18 10 19 10 19 12" stroke="#707070" stroke-linecap="round"/>
<path d="M1 12V19" stroke="#707070" stroke-linecap="round"/>
<path d="M19 12V19" stroke="#707070" stroke-linecap="round"/>
<path d="M1 19C1 20 1 21 3 21M19 19C19 20 19 21 17 21" stroke="#707070" stroke-linecap="round"/>
<path d="M3 21H17" stroke="#707070" stroke-linecap="round"/>
<path d="M4.5 9.5V6.5" stroke="#707070" stroke-linecap="round"/>
<path d="M15.4985 10.0004L15.5 6.5" stroke="#707070" stroke-linecap="round"/>
<path d="M4.5 6.5C4.5 3.49975 6.7677 1.01078 10 1.00004C13.2675 0.989175 15.5 3.49975 15.5 6.5" stroke="#707070" stroke-linecap="round"/>
<path d="M11.541 14.3506C11.541 15.179 10.8694 15.8506 10.041 15.8506C9.21259 15.8506 8.54102 15.179 8.54102 14.3506C8.54102 13.5222 9.21259 12.8506 10.041 12.8506C10.8694 12.8506 11.541 13.5222 11.541 14.3506Z" fill="#707070"/>
<rect x="9" y="14" width="2" height="4" rx="1" fill="#707070"/>
</svg>
